name Walk5.mot
datacolumns 19
datarows 22
range 1.62000000 1.72500000
endheader

                time	   L_ground_force_vx	   L_ground_force_vy	   L_ground_force_vz	   L_ground_force_px	   L_ground_force_py	   L_ground_force_pz	   R_ground_force_vx	   R_ground_force_vy	   R_ground_force_vz	   R_ground_force_px	   R_ground_force_py	   R_ground_force_pz	   L_ground_torque_x	   L_ground_torque_y	   L_ground_torque_z	   R_ground_torque_x	   R_ground_torque_y	   R_ground_torque_z	
          1.62000000	         27.48393758	        530.60585536	         36.71785277	         -0.30488044	          0.00000000	         -0.09181255	         -0.00658642	          0.24368622	          0.01086920	          0.00016843	          0.00000000	          0.00007048	          0.00000000	         -0.03627532	          0.00000000	          0.00000000	          0.00012654	          0.00000000	
          1.62500000	         28.10852663	        539.37967737	         37.25729948	         -0.30219413	          0.00000000	         -0.09242077	         -0.01415540	          0.30395312	          0.01087246	          0.00019849	          0.00000000	          0.00008238	          0.00000000	         -0.06201018	          0.00000000	          0.00000000	          0.00026791	          0.00000000	
          1.63000000	         28.82369337	        548.77661109	         37.81736267	         -0.29959276	          0.00000000	         -0.09299431	         -0.02421255	          0.36044613	          0.00953666	          0.00022087	          0.00000000	          0.00009079	          0.00000000	         -0.09243391	          0.00000000	          0.00000000	          0.00045532	          0.00000000	
          1.63500000	         29.65290830	        558.76138059	         38.40580820	         -0.29708727	          0.00000000	         -0.09353248	         -0.03690938	          0.40408706	          0.00627751	          0.00022854	          0.00000000	          0.00009269	          0.00000000	         -0.12656642	          0.00000000	          0.00000000	          0.00069141	          0.00000000	
          1.64000000	         30.61999837	        569.28243498	         39.03101756	         -0.29468719	          0.00000000	         -0.09403430	         -0.05215660	          0.42230456	          0.00042107	          0.00021231	          0.00000000	          0.00008424	          0.00000000	         -0.16330763	          0.00000000	          0.00000000	          0.00097430	          0.00000000	
          1.64500000	         31.74720988	        580.27245246	         39.70057052	         -0.29240129	          0.00000000	         -0.09449821	         -0.06950043	          0.39863055	         -0.00876328	          0.00016082	          0.00000000	          0.00006066	          0.00000000	         -0.20173794	          0.00000000	          0.00000000	          0.00129527	          0.00000000	
          1.65000000	         33.05449372	        591.65011089	         40.42030864	         -0.29023814	          0.00000000	         -0.09492349	         -0.08797469	          0.31255144	         -0.02200441	          0.00006070	          0.00000000	          0.00001641	          0.00000000	         -0.24094170	          0.00000000	          0.00000000	          0.00163605	          0.00000000	
          1.65500000	         34.55950852	        603.32129299	         41.19347631	         -0.28820526	          0.00000000	         -0.09531055	         -0.10593332	          0.13977505	         -0.03993861	         -0.00010292	          0.00000000	         -0.00005461	          0.00000000	         -0.28010966	          0.00000000	          0.00000000	          0.00196567	          0.00000000	
          1.66000000	         36.27865858	        615.18178539	         42.01950749	         -0.28630836	          0.00000000	         -0.09566035	         -0.12087311	         -0.14688714	         -0.06297927	         -0.00034537	          0.00000000	         -0.00015862	          0.00000000	         -0.31845381	          0.00000000	          0.00000000	          0.00223725	          0.00000000	
          1.66500000	         38.22832345	        627.11869249	         42.89260883	         -0.28455121	          0.00000000	         -0.09597454	         -0.12926285	         -0.57578702	         -0.09114130	         -0.00068085	          0.00000000	         -0.00030126	          0.00000000	         -0.35493774	          0.00000000	          0.00000000	          0.00238484	          0.00000000	
          1.67000000	         40.42452461	        639.00918469	         43.80118828	         -0.28293602	          0.00000000	         -0.09625541	         -0.12640391	         -1.17359410	         -0.12381631	         -0.00112002	          0.00000000	         -0.00048652	          0.00000000	         -0.38867716	          0.00000000	          0.00000000	          0.00232087	          0.00000000	
          1.67500000	         42.88093453	        650.72010269	         44.72807211	         -0.28146324	          0.00000000	         -0.09650470	         -0.10635658	         -1.96106521	         -0.15949904	         -0.00166673	          0.00000000	         -0.00071542	          0.00000000	         -0.41924938	          0.00000000	          0.00000000	          0.00193488	          0.00000000	
          1.68000000	         45.60653773	        662.11061986	         45.65116186	         -0.28013073	          0.00000000	         -0.09672262	         -0.06197843	         -2.94717728	         -0.19547125	         -0.00231369	          0.00000000	         -0.00098413	          0.00000000	         -0.44640654	          0.00000000	          0.00000000	          0.00109436	          0.00000000	
          1.68500000	         48.60321832	        673.03538408	         46.54574592	         -0.27893446	          0.00000000	         -0.09690868	          0.01486763	         -4.12143071	         -0.22745849	         -0.00303721	          0.00000000	         -0.00128178	          0.00000000	         -0.47025496	          0.00000000	          0.00000000	         -0.00035130	          0.00000000	
          1.69000000	         51.86440099	        683.34476662	         47.38874141	         -0.27786778	          0.00000000	         -0.09706362	          0.13286623	         -5.44424955	         -0.24928673	         -0.00379089	          0.00000000	         -0.00158785	          0.00000000	         -0.49109440	          0.00000000	          0.00000000	         -0.00256231	          0.00000000	
          1.69500000	         55.37447561	        692.88157837	         48.16151440	         -0.27692020	          0.00000000	         -0.09718910	          0.30048471	         -6.83559757	         -0.25258118	         -0.00449863	          0.00000000	         -0.00186931	          0.00000000	         -0.50905114	          0.00000000	          0.00000000	         -0.00569411	          0.00000000	
          1.70000000	         59.10860985	        701.48577748	         48.85058121	         -0.27607743	          0.00000000	         -0.09728669	          0.52480737	         -8.16221631	         -0.22656814	         -0.00504745	          0.00000000	         -0.00207766	          0.00000000	         -0.52370812	          0.00000000	          0.00000000	         -0.00987553	          0.00000000	
          1.70500000	         63.03420935	        708.99930085	         49.44696265	         -0.27532251	          0.00000000	         -0.09735812	          0.80988809	         -9.22428820	         -0.15806171	         -0.00528079	          0.00000000	         -0.00214632	          0.00000000	         -0.53412955	          0.00000000	          0.00000000	         -0.01517801	          0.00000000	
          1.71000000	         67.11411048	        715.26442153	         49.94467374	         -0.27463603	          0.00000000	         -0.09740552	          1.15455523	         -9.74284779	         -0.03174073	         -0.00499338	          0.00000000	         -0.00198870	          0.00000000	         -0.53904632	          0.00000000	          0.00000000	         -0.02157473	          0.00000000	
          1.71500000	         71.30982854	        720.12363207	         50.33847105	         -0.27399831	          0.00000000	         -0.09743139	          1.54963310	         -9.34991238	          0.16915617	         -0.00392938	          0.00000000	         -0.00149764	          0.00000000	         -0.53740855	          0.00000000	          0.00000000	         -0.02888887	          0.00000000	
          1.72000000	         75.58367572	        723.42277733	         50.62158142	         -0.27339137	          0.00000000	         -0.09744040	          1.97459624	         -7.58407014	          0.46156901	         -0.00178559	          0.00000000	         -0.00054719	          0.00000000	         -0.52826446	          0.00000000	          0.00000000	         -0.03673158	          0.00000000	
          1.72500000	         79.89902427	        725.01178917	         50.78327684	         -0.27279989	          0.00000000	         -0.09743845	          2.39375197	         -3.89512276	          0.86062724	          0.00177760	          0.00000000	          0.00100241	          0.00000000	         -0.51084482	          0.00000000	          0.00000000	         -0.04443131	          0.00000000	
